<svg width="41" height="41" viewBox="0 0 41 41" fill="none" xmlns="http://www.w3.org/2000/svg">
<g clip-path="url(#clip0)">
<path d="M27.031 4.73074H13.969C12.527 4.73074 11.3539 5.90383 11.3539 7.34588V36.8079C11.3539 38.2499 12.527 39.423 13.969 39.423H27.031C28.4731 39.423 29.6462 38.2499 29.6462 36.8079V7.34597C29.6462 5.90383 28.4731 4.73074 27.031 4.73074ZM28.3846 36.8079C28.3846 37.5542 27.7772 38.1616 27.031 38.1616H13.969C13.2228 38.1616 12.6154 37.5542 12.6154 36.8079V7.34597C12.6154 6.59977 13.2228 5.99234 13.969 5.99234H27.031C27.7772 5.99234 28.3847 6.59977 28.3847 7.34597V36.8079H28.3846Z" fill="black"/>
<path d="M23.9693 1.57693H17.0308C16.6825 1.57693 16.4 1.8594 16.4 2.20773V5.36155C16.4 5.70989 16.6825 5.99235 17.0308 5.99235H23.9693C24.3176 5.99235 24.6001 5.70989 24.6001 5.36155V2.20773C24.6 1.8594 24.3176 1.57693 23.9693 1.57693ZM23.3385 4.73075H17.6615V2.83844H23.3385V4.73075Z" fill="black"/>
<path d="M25.1319 18.8996C25.0161 18.7175 24.8155 18.6075 24.6 18.6075H20.8154V12.9306C20.8154 12.6349 20.6099 12.379 20.3213 12.315C20.0301 12.2512 19.738 12.396 19.613 12.6639L15.1976 22.1255C15.1065 22.3207 15.1215 22.5494 15.2373 22.731C15.3531 22.9132 15.5537 23.0231 15.7692 23.0231H19.5538V28.7C19.5538 28.9957 19.7593 29.2516 20.0479 29.3157C20.0938 29.3259 20.1396 29.3308 20.1849 29.3308C20.4257 29.3308 20.6509 29.1922 20.7562 28.9667L25.1716 19.5052C25.2627 19.3099 25.2477 19.0812 25.1319 18.8996ZM19.5538 21.7615H16.7597L19.5538 15.7738V21.7615ZM20.8154 25.857V19.8692H23.6095L20.8154 25.857Z" fill="black"/>
</g>
<defs>
<clipPath id="clip0">
<rect width="37.8462" height="37.8462" fill="white" transform="translate(1.57692 1.57693)"/>
</clipPath>
</defs>
</svg>
